<svg version="1.1" id="Layer_1" xmlns="http://www.w3.org/2000/svg" xmlns:xlink="http://www.w3.org/1999/xlink" x="0px" y="0px"
	 width="100%" viewBox="50 50 400 400" enable-background="new 0 0 400 400" xml:space="preserve">
<path fill="#FFFFFF" opacity="1.000000" stroke="none"
	d="
M174.164627,374.454742
	C174.633881,383.972351 174.738800,392.962708 169.225861,400.884064
	C168.226608,402.319824 168.858322,403.764954 169.125458,405.218414
	C171.239914,416.723022 170.834213,428.096252 167.255539,439.282440
	C166.508453,441.617676 165.568939,443.891327 164.729553,446.162384
	C161.818939,445.735504 161.900726,443.550812 161.415787,441.964905
	C150.344193,405.756622 135.337677,371.059052 121.052147,336.073242
	C111.495918,312.669617 101.554321,289.369720 95.410027,264.728699
	C94.808113,262.314789 94.421394,259.827515 94.166328,257.350403
	C93.233200,248.288208 96.759270,242.176758 105.229111,238.044128
	C111.515625,234.976807 117.969772,232.214737 123.754318,228.220123
	C128.654709,224.836060 128.821320,222.949722 124.372231,218.948502
	C121.658127,216.507629 118.762680,214.207291 115.702667,212.223267
	C105.276428,205.463211 97.781540,196.284348 93.388718,184.766876
	C91.321709,179.347397 88.780182,174.504990 84.344246,170.717346
	C83.493813,169.991196 82.558739,169.152740 82.789604,167.006622
	C90.982201,167.050049 95.165024,159.487961 101.954712,156.275955
	C117.736145,148.810181 132.751114,151.881226 147.430618,159.564789
	C149.462906,160.628494 151.252136,162.270493 153.859512,162.197449
	C155.661240,160.487610 155.283844,158.395187 155.095291,156.221420
	C154.318848,147.269089 153.882660,138.336639 155.458923,129.380737
	C156.958572,120.860130 161.349625,114.276192 168.059036,109.110214
	C183.802475,96.988388 202.146713,90.485512 220.892365,84.927155
	C246.258789,77.405632 272.288483,72.193634 297.174255,62.989441
	C307.963806,58.998852 318.441498,54.302071 328.812744,49.347462
	C330.137970,48.714367 331.379669,47.744434 333.382690,47.960484
	C335.468262,49.845203 335.400848,52.344093 334.701202,55.033119
	C332.649811,62.917175 326.753845,67.472549 320.397064,71.639175
	C317.581329,73.484779 314.518890,74.678726 314.633331,79.289642
	C314.710754,82.410820 311.490021,84.656158 308.897888,86.490112
	C306.048096,88.506332 303.058990,90.356781 299.992126,92.024895
	C297.655029,93.296066 296.227295,94.805084 295.602417,97.580933
	C294.623108,101.931229 290.877838,104.289291 287.532318,106.746971
	C282.941895,110.119125 277.652924,112.262115 272.640167,114.889771
	C271.338959,115.571854 269.524109,115.944199 269.364197,117.665253
	C268.683258,124.993546 262.430878,126.522552 257.371307,128.990463
	C253.961578,130.653625 251.352066,131.448883 251.564575,136.520859
	C251.793991,141.996216 246.514160,143.797928 241.906906,145.086304
	C239.540878,145.747955 236.935532,145.545670 234.970490,146.883224
	C234.086731,153.587234 235.928421,160.099121 234.786636,166.626633
	C234.637100,167.481522 235.324799,168.493042 235.658981,169.419647
	C236.053986,170.514923 237.021439,171.711105 236.817383,172.666321
	C235.220673,180.140656 238.422699,187.977570 235.109848,195.261414
	C234.345657,196.941650 234.219727,198.402283 235.048248,200.002151
	C236.887024,203.552780 237.514923,207.205612 235.592087,211.101730
	C244.226288,217.428589 252.609039,223.713013 260.555969,230.562424
	C261.963867,231.775879 264.182953,232.165222 266.099091,232.654831
	C313.413147,244.744400 359.191223,261.771088 405.814575,276.078125
	C411.506958,277.824951 417.238190,279.445190 422.882324,281.602142
	C417.201080,283.149261 411.648590,281.623047 406.170044,280.767853
	C379.365936,276.583710 353.018890,270.060394 326.399628,264.922241
	C316.442169,263.000214 306.467987,260.999298 296.235565,261.242554
	C294.570587,261.282135 292.879120,261.203339 291.247406,261.470032
	C285.279083,262.445404 283.904175,265.739807 287.669647,270.465179
	C292.704987,276.784088 299.190338,281.514923 305.748016,286.104736
	C332.516113,304.840027 361.165466,320.610840 388.447113,338.537567
	C393.241394,341.687897 397.975952,344.929108 402.280487,348.905212
	C340.553162,321.999603 281.452942,290.051971 222.573242,256.554352
	C221.278290,263.479187 217.503891,266.893494 211.223251,267.361603
	C209.159424,267.515442 208.557114,269.000824 207.843719,270.555206
	C205.872147,274.850769 202.597000,277.618561 198.170151,279.395020
	C192.754150,281.568390 189.417633,286.802460 184.058167,289.358154
	C181.664032,290.499847 179.650192,292.668610 176.933197,293.684998
	C173.646866,294.914398 170.580750,301.059021 171.063843,304.619476
	C171.554550,308.236023 172.345108,311.891113 170.150620,315.302429
	C169.085098,316.958801 170.015762,318.455872 170.580734,320.032013
	C173.308517,327.641937 175.208450,335.346710 172.636353,343.428101
	C172.149246,344.958588 172.463531,346.373657 173.101425,347.782227
	C176.991898,356.373230 177.477325,365.108765 174.164627,374.454742
z"/>
</svg>